<svg id="visual" viewBox="0 0 1400 600" width="1400" height="600" xmlns="http://www.w3.org/2000/svg" xmlns:xlink="http://www.w3.org/1999/xlink" version="1.1"><path d="M0 534L23.3 527.8C46.7 521.7 93.3 509.3 140 515C186.7 520.7 233.3 544.3 280 557.5C326.7 570.7 373.3 573.3 420 575.3C466.7 577.3 513.3 578.7 560 566.8C606.7 555 653.3 530 700 523.8C746.7 517.7 793.3 530.3 840 541C886.7 551.7 933.3 560.3 980 554.8C1026.7 549.3 1073.3 529.7 1120 531.3C1166.7 533 1213.3 556 1260 554.2C1306.7 552.3 1353.3 525.7 1376.7 512.3L1400 499L1400 601L1376.7 601C1353.3 601 1306.7 601 1260 601C1213.3 601 1166.7 601 1120 601C1073.3 601 1026.7 601 980 601C933.3 601 886.7 601 840 601C793.3 601 746.7 601 700 601C653.3 601 606.7 601 560 601C513.3 601 466.7 601 420 601C373.3 601 326.7 601 280 601C233.3 601 186.7 601 140 601C93.3 601 46.7 601 23.3 601L0 601Z" fill="#243625" stroke-linecap="round" stroke-linejoin="miter"></path></svg>