<svg id="visual" viewBox="0 0 1300 800" width="1300" height="800" xmlns="http://www.w3.org/2000/svg" xmlns:xlink="http://www.w3.org/1999/xlink" version="1.1"><path d="M1007 800L948 777.8C889 755.7 771 711.3 749.7 666.8C728.3 622.3 803.7 577.7 815.5 533.2C827.3 488.7 775.7 444.3 759.3 400C743 355.7 762 311.3 806 266.8C850 222.3 919 177.7 901.2 133.2C883.3 88.7 778.7 44.3 726.3 22.2L674 0L1300 0L1300 22.2C1300 44.3 1300 88.7 1300 133.2C1300 177.7 1300 222.3 1300 266.8C1300 311.3 1300 355.7 1300 400C1300 444.3 1300 488.7 1300 533.2C1300 577.7 1300 622.3 1300 666.8C1300 711.3 1300 755.7 1300 777.8L1300 800Z" fill="#f8f5f1" stroke-linecap="round" stroke-linejoin="miter"></path></svg>